<?xml version="1.0" encoding="UTF-8" standalone="no"?>
<!-- Created with Inkscape (http://www.inkscape.org/) -->

<svg
   width="205.71446mm"
   height="42.784115mm"
   viewBox="0 0 205.71446 42.784115"
   version="1.1"
   id="svg1"
   inkscape:version="1.3.2 (091e20e, 2023-11-25)"
   sodipodi:docname="draLLaM.svg"
   xmlns:inkscape="http://www.inkscape.org/namespaces/inkscape"
   xmlns:sodipodi="http://sodipodi.sourceforge.net/DTD/sodipodi-0.dtd"
   xmlns="http://www.w3.org/2000/svg"
   xmlns:svg="http://www.w3.org/2000/svg">
  <sodipodi:namedview
     id="namedview1"
     pagecolor="#ffffff"
     bordercolor="#000000"
     borderopacity="0.25"
     inkscape:showpageshadow="2"
     inkscape:pageopacity="0.0"
     inkscape:pagecheckerboard="0"
     inkscape:deskcolor="#d1d1d1"
     inkscape:document-units="mm"
     inkscape:zoom="0.70961503"
     inkscape:cx="434.74277"
     inkscape:cy="156.42284"
     inkscape:window-width="1920"
     inkscape:window-height="1027"
     inkscape:window-x="0"
     inkscape:window-y="325"
     inkscape:window-maximized="1"
     inkscape:current-layer="layer1" />
  <defs
     id="defs1" />
  <g
     inkscape:label="Layer 1"
     inkscape:groupmode="layer"
     id="layer1"
     transform="translate(-60.887001,-142.36531)">
    <g
       id="g3"
       transform="matrix(-0.86114504,0,0,0.86114504,199.46129,21.835505)">
      <path
         style="fill:#9e71fe;fill-opacity:1;stroke-width:0.264583"
         d="m 69.121789,147.35168 -3.048423,-1.38564 -21.338974,1.87062 0.27713,1.31637 20.646149,2.77129 3.464118,-1.38565 51.291641,-0.37745 -0.0537,-2.60107 z"
         id="path22"
         sodipodi:nodetypes="ccccccccc" />
      <path
         style="fill:#000000"
         d="m 41.546173,148.33889 c 0.03617,-0.13276 1.334293,-0.73648 2.884706,-1.34161 1.550406,-0.60513 5.573542,-2.20907 8.94029,-3.56432 5.127345,-2.06395 6.175201,-2.39977 6.452862,-2.06803 0.182324,0.21783 0.68827,1.20346 1.124318,2.19028 l 0.792828,1.79425 2.851173,0.0246 c 2.699115,0.0233 3.168908,0.15437 4.33197,1.20892 0.136147,0.12348 5.716966,0.21032 12.401764,0.19299 6.684798,-0.0173 15.348241,-0.035 19.252116,-0.0393 l 7.09794,-0.008 4.44983,-0.16882 3.82773,0.0348 3.82771,0.0348 0.85002,1.54158 1.66271,0.42869 c -0.11988,0.11852 -0.0667,0.31369 0.11812,0.43372 l -1.84968,0.24646 -4.27776,2.18984 -27.832004,-0.1561 c -18.578528,-0.0993 -19.25061,-0.0791 -19.935474,0.59802 -0.641472,0.63423 -0.985657,0.69194 -3.625467,0.60796 -1.60419,-0.051 -3.052906,0.0425 -3.219374,0.20785 -0.166462,0.16536 -0.559353,1.05238 -0.873101,1.97117 -0.31374,0.91879 -0.695464,1.66982 -0.848268,1.66895 -0.152817,-8.7e-4 -4.233418,-1.69716 -9.068011,-3.76954 -4.834586,-2.07238 -8.927904,-3.82413 -9.096261,-3.89277 -0.168314,-0.0687 -0.276496,-0.23343 -0.240292,-0.36621 z m 6.189084,0.30707 c 0.709265,-0.007 1.205864,-0.0975 1.103552,-0.20097 -0.102319,-0.10348 -0.766336,-0.18238 -1.475594,-0.17533 -0.709273,0.007 -1.205872,0.0975 -1.103553,0.20098 0.102312,0.10348 0.766329,0.18237 1.475595,0.17532 z m 7.987179,0.74017 c 0.159227,0.16104 0.609043,0.23497 0.99959,0.16429 0.390554,-0.0707 1.512728,-0.15633 2.493722,-0.19035 1.73527,-0.0601 2.701806,-0.48183 2.220401,-0.96873 -0.257011,-0.25995 -4.737719,-0.30044 -5.996472,-0.0542 -1.102328,0.21566 -1.519687,0.67209 -0.658328,0.71994 0.35836,0.0199 0.781847,0.16798 0.941066,0.32902 z m 7.813309,0.39241 c 0.187128,-1.07528 0.06511,-2.58466 -0.233341,-2.88652 -0.11025,-0.11151 -0.211522,0.63278 -0.225064,1.65398 -0.02734,2.06284 0.205131,2.68791 0.458405,1.23254 z m 1.44066,-0.25512 c 0.130233,-1.04014 -0.02254,-2.61942 -0.253511,-2.62072 -0.09022,-5.1e-4 -0.168565,0.78482 -0.174019,1.7452 -0.01043,1.83854 0.242175,2.35586 0.42753,0.87552 z m 1.360023,0.46678 c 0.204848,-0.66295 0.01922,-3.02645 -0.258144,-3.2868 -0.185291,-0.17461 -0.184317,3.56244 0.0013,3.7502 0.0476,0.0481 0.163194,-0.16037 0.256819,-0.4634 z m 1.570769,-0.65217 c 0.238871,-1.14046 0.04139,-2.22992 -0.40467,-2.23246 -0.09503,-5.4e-4 -0.188357,0.78472 -0.207507,1.74501 -0.01914,0.9603 0.05135,1.74648 0.156648,1.74708 0.105357,6e-4 0.310288,-0.56624 0.455529,-1.25963 z m 19.676675,-0.11109 c 9.860379,0.0266 17.928568,-0.058 17.929298,-0.18805 7.3e-4,-0.12996 -0.69801,-0.25303 -1.55279,-0.27333 -0.85477,-0.0203 -1.93308,-0.16454 -2.39624,-0.32053 -0.7556,-0.25448 -17.673646,-0.40209 -27.71789,-0.24186 -3.452301,0.0551 -4.841956,0.31634 -4.346735,0.81722 0.08602,0.087 8.223979,0.17995 18.084357,0.20655 z M 114.46,149.01223 c 2.54559,0.39292 5.47045,0.24769 5.47341,-0.2718 0.002,-0.31329 -0.62559,-0.43068 -2.4345,-0.45551 -2.54219,-0.0349 -5.051,0.14495 -4.85049,0.34775 0.0641,0.0649 0.87933,0.23566 1.81158,0.37956 z"
         id="path2"
         sodipodi:nodetypes="csssscssssccccccccccsssssscccssssssssssssssssscsscssssssssssssssssssssss" />
      <g
         inkscape:label="Layer 1"
         id="layer1-8"
         transform="matrix(1.6402779,-0.05348186,0.06081443,1.8651663,1.3708047,159.08978)">
        <g
           id="g22">
          <g
             id="g11"
             transform="matrix(0.57564916,0,0,0.57564916,45.340055,-69.475134)">
            <g
               id="g10"
               transform="rotate(52.093248,100.23075,167.15671)">
              <path
                 id="path10"
                 style="fill:#000000;stroke-width:0.5"
                 d="m 56.873531,139.6969 c -0.574298,-0.0349 -2.454674,0.37721 -4.079337,0.91519 -1.906229,0.6312 -4.843105,2.06893 -6.507614,3.18585 -0.632229,0.42424 -1.659141,1.24812 -2.282031,1.8309 -0.622889,0.58279 -1.13223,0.99449 -1.13223,0.91519 0,-0.0793 -0.07437,-0.14391 -0.165365,-0.14366 -0.26818,7.4e-4 -2.202543,1.83905 -3.027722,2.87734 -0.60275,0.75825 -0.786133,0.91634 -0.876433,0.75499 -0.09489,-0.16955 -0.219916,-0.11143 -0.736905,0.34365 -1.047129,0.92171 -2.901117,3.20306 -3.595647,4.42402 -0.206939,0.3638 -0.396446,0.6873 -0.420646,0.7183 -0.02418,0.0311 -0.120457,-0.0487 -0.214457,-0.17725 -0.15602,-0.21337 -0.2233,-0.1726 -0.771529,0.47233 -0.689599,0.81123 -1.601345,2.12607 -1.842265,2.65668 -0.13398,0.29506 -0.200337,0.33353 -0.355017,0.20516 -0.15289,-0.12689 -0.239454,-0.0943 -0.443384,0.16639 -1.065179,1.36154 -2.411253,3.83316 -2.856673,5.2462 -0.23542,0.74682 -0.367642,0.86149 -0.502812,0.43563 -0.04618,-0.14552 -0.137788,-0.26459 -0.203088,-0.26459 -0.19839,0 -1.305114,1.79583 -2.133203,3.46078 -0.924409,1.8586 -1.598566,3.8057 -1.909444,5.51594 -0.222618,1.2247 -0.226876,1.23341 -0.401526,0.81804 -0.221217,-0.52612 -0.692122,-1.1958 -0.841293,-1.1958 -0.06201,0 -0.156663,0.40184 -0.210323,0.89297 -0.129733,1.18731 0.123718,3.39553 0.548287,4.77542 0.186902,0.60745 0.319022,1.12533 0.293522,1.15083 -0.0255,0.0255 -0.401917,-0.46344 -0.836124,-1.08675 -1.568505,-2.25157 -1.575557,-2.26023 -1.623157,-1.93632 -0.114786,0.78109 0.498509,3.20392 1.30328,5.14904 l 35.984868,-42.06289 c -0.02417,-0.0242 -0.0797,-0.0384 -0.161747,-0.0434 z m -4.141349,2.40089 c 0.06716,0.0128 0.04521,0.11667 -0.05994,0.31316 -0.17192,0.32116 -0.187985,1.51921 -0.02791,2.07739 0.14059,0.49021 0.327584,0.24884 -5.90765,7.62796 -4.056326,4.80046 -5.89539,7.02239 -13.718542,16.5747 -5.271991,4.50607 -7.017133,9.38662 -6.933944,7.56698 0.02301,-0.50331 -1.067083,-2.56325 -1.147734,-3.70469 -0.06025,-0.853 -0.01829,-1.30978 0.196888,-2.1425 0.263039,-1.0179 1.473759,-3.71079 1.546158,-3.43907 0.01936,0.0727 0.133485,0.93023 0.253215,1.90583 0.11973,0.9756 0.310363,2.27107 0.527616,2.84427 l 0.28961,0.7641 c 0.518747,0.84018 1.215942,0.38951 1.257395,-0.005 l -0.369834,-1.27609 c -0.585418,-2.01996 -0.496371,-4.79856 0.129708,-6.62802 0.36569,-1.06856 1.151643,-2.69855 1.301213,-2.69855 0.0571,0 0.10387,0.27131 0.10387,0.60255 0,0.76462 0.352856,2.33263 0.597896,2.65617 0.16691,0.22038 0.18837,0.13951 0.19637,-0.74517 0.01173,-1.32002 0.282838,-2.77608 0.727088,-3.90519 0.385779,-0.98053 1.117794,-2.36313 1.205094,-2.27583 0.02872,0.0287 -0.01527,0.69154 -0.09767,1.47278 -0.12499,1.18539 -0.113601,1.70884 0.06873,3.16363 0.12016,0.95879 0.300993,2.05554 0.402043,2.43757 0.363313,1.42095 1.373609,0.36314 1.372009,0.12196 l -0.155029,-0.5519 -0.100252,-0.46302 c -0.4382,-2.02553 -0.390363,-5.02021 0.104386,-6.54844 0.47179,-1.45733 2.078644,-4.11404 2.960543,-4.89479 l 0.29869,-0.26459 -0.07958,0.33073 c -0.2787,1.1537 -0.381844,2.50268 -0.318844,4.16719 0.06515,1.72237 0.384794,3.82741 0.619084,4.07675 0.0557,0.0593 0.283943,-0.12345 0.507463,-0.40566 0.371859,-0.46951 0.395382,-0.55707 0.279052,-1.03352 -0.06993,-0.28639 -0.162472,-1.29482 -0.205672,-2.24069 -0.09138,-2.00088 0.109622,-3.44814 0.680062,-4.89583 0.41645,-1.05687 1.559801,-2.85243 2.18953,-3.43855 l 0.426331,-0.39687 -0.07803,0.33072 c -0.29968,1.27125 -0.486792,2.90944 -0.486792,4.25814 0,1.50715 0.213792,3.41479 0.382922,3.41478 0.0439,0 0.249253,-0.2123 0.456303,-0.4718 0.375699,-0.47082 0.376368,-0.4758 0.362768,-2.34818 -0.02538,-3.50941 0.660287,-5.52123 2.527495,-7.41815 0.594869,-0.60435 1.025719,-0.9573 0.987019,-0.80822 -0.03779,0.14552 -0.162712,0.59199 -0.277502,0.99218 -0.31074,1.08328 -0.403336,2.96223 -0.208256,4.21628 0.09201,0.59148 0.204414,1.07326 0.250114,1.07126 0.30189,-0.0151 0.513413,-0.70458 0.598413,-1.95079 0.2086,-3.05968 1.238745,-5.35178 2.926953,-6.5133 0.31583,-0.21729 0.604738,-0.39532 0.642338,-0.39532 0.03755,0 -0.05001,0.34231 -0.194303,0.76068 -0.27755,0.80476 -0.361113,2.54614 -0.156063,3.25148 l 0.109037,0.37362 0.250114,-0.27647 c 0.14974,-0.16546 0.294935,-0.60762 0.361735,-1.10123 0.24379,-1.80137 0.959714,-3.23021 1.954403,-3.90053 0.25057,-0.16884 0.406717,-0.24738 0.473873,-0.23461 z"
                 sodipodi:nodetypes="sssssscssscsssscssssssssssssccsssssssssssccccsssscsscsccccsccccssssscccssscssssccssscccsssss" />
              <path
                 id="path3"
                 style="fill:#000000;stroke-width:0.5"
                 d="m 56.873531,139.6969 c -0.574298,-0.0349 -2.454674,0.37721 -4.079337,0.91519 -1.906229,0.6312 -4.843105,2.06893 -6.507614,3.18585 -0.632229,0.42424 -1.659141,1.24812 -2.282031,1.8309 -0.622889,0.58279 -1.13223,0.99449 -1.13223,0.91519 0,-0.0793 -0.07437,-0.14391 -0.165365,-0.14366 -0.26818,7.4e-4 -2.202543,1.83905 -3.027722,2.87734 -0.60275,0.75825 -0.786133,0.91634 -0.876433,0.75499 -0.09489,-0.16955 -0.219916,-0.11143 -0.736905,0.34365 -1.047129,0.92171 -2.901117,3.20306 -3.595647,4.42402 -0.206939,0.3638 -0.396446,0.6873 -0.420646,0.7183 -0.02418,0.0311 -0.120457,-0.0487 -0.214457,-0.17725 -0.15602,-0.21337 -0.2233,-0.1726 -0.771529,0.47233 -0.689599,0.81123 -1.601345,2.12607 -1.842265,2.65668 -0.13398,0.29506 -0.200337,0.33353 -0.355017,0.20516 -0.15289,-0.12689 -0.239454,-0.0943 -0.443384,0.16639 -1.065179,1.36154 -2.411253,3.83316 -2.856673,5.2462 -0.23542,0.74682 -0.367642,0.86149 -0.502812,0.43563 -0.04618,-0.14552 -0.137788,-0.26459 -0.203088,-0.26459 -0.19839,0 -1.305114,1.79583 -2.133203,3.46078 -0.924409,1.8586 -1.598566,3.8057 -1.909444,5.51594 -0.222618,1.2247 -0.226876,1.23341 -0.401526,0.81804 -0.221217,-0.52612 -0.692122,-1.1958 -0.841293,-1.1958 -0.06201,0 -0.156663,0.40184 -0.210323,0.89297 -0.129733,1.18731 0.123718,3.39553 0.548287,4.77542 0.186902,0.60745 0.319022,1.12533 0.293522,1.15083 -0.0255,0.0255 -0.401917,-0.46344 -0.836124,-1.08675 -1.568505,-2.25157 -1.575557,-2.26023 -1.623157,-1.93632 -0.114786,0.78109 0.498509,3.20392 1.30328,5.14904 l 35.984868,-42.06289 c -0.02417,-0.0242 -0.0797,-0.0384 -0.161747,-0.0434 z m -4.141349,2.40089 c 0.06716,0.0128 0.04521,0.11667 -0.05994,0.31316 -0.17192,0.32116 -0.187985,1.51921 -0.02791,2.07739 0.14059,0.49021 0.327584,0.24884 -5.90765,7.62796 -4.056326,4.80046 -5.578099,7.2981 -13.718542,16.5747 -1.091558,1.24391 -1.768175,2.23804 -2.638489,3.33365 -0.345482,0.43492 -0.811275,0.93547 -1.20895,1.3984 -2.160067,2.51452 -3.141566,4.03932 -3.086505,2.83493 0.02301,-0.50331 -1.067083,-2.56325 -1.147734,-3.70469 -0.06025,-0.853 -0.01829,-1.30978 0.196888,-2.1425 0.263039,-1.0179 1.473759,-3.71079 1.546158,-3.43907 0.01936,0.0727 0.133485,0.93023 0.253215,1.90583 0.11973,0.9756 0.310363,2.27107 0.527616,2.84427 l 0.28961,0.7641 c 0.518747,0.84018 1.215942,0.38951 1.257395,-0.005 l -0.369834,-1.27609 c -0.585418,-2.01996 -0.496371,-4.79856 0.129708,-6.62802 0.36569,-1.06856 1.151643,-2.69855 1.301213,-2.69855 0.0571,0 0.10387,0.27131 0.10387,0.60255 0,0.76462 0.352856,2.33263 0.597896,2.65617 0.16691,0.22038 0.18837,0.13951 0.19637,-0.74517 0.01173,-1.32002 0.282838,-2.77608 0.727088,-3.90519 0.385779,-0.98053 1.117794,-2.36313 1.205094,-2.27583 0.02872,0.0287 -0.01527,0.69154 -0.09767,1.47278 -0.12499,1.18539 -0.113601,1.70884 0.06873,3.16363 0.12016,0.95879 0.300993,2.05554 0.402043,2.43757 0.363313,1.42095 1.373609,0.36314 1.372009,0.12196 l -0.155029,-0.5519 -0.100252,-0.46302 c -0.4382,-2.02553 -0.390363,-5.02021 0.104386,-6.54844 0.47179,-1.45733 2.078644,-4.11404 2.960543,-4.89479 l 0.29869,-0.26459 -0.07958,0.33073 c -0.2787,1.1537 -0.381844,2.50268 -0.318844,4.16719 0.06515,1.72237 0.384794,3.82741 0.619084,4.07675 0.0557,0.0593 0.283943,-0.12345 0.507463,-0.40566 0.371859,-0.46951 0.395382,-0.55707 0.279052,-1.03352 -0.06993,-0.28639 -0.162472,-1.29482 -0.205672,-2.24069 -0.09138,-2.00088 0.109622,-3.44814 0.680062,-4.89583 0.41645,-1.05687 1.559801,-2.85243 2.18953,-3.43855 l 0.426331,-0.39687 -0.07803,0.33072 c -0.29968,1.27125 -0.486792,2.90944 -0.486792,4.25814 0,1.50715 0.213792,3.41479 0.382922,3.41478 0.0439,0 0.249253,-0.2123 0.456303,-0.4718 0.375699,-0.47082 0.376368,-0.4758 0.362768,-2.34818 -0.02538,-3.50941 0.660287,-5.52123 2.527495,-7.41815 0.594869,-0.60435 1.025719,-0.9573 0.987019,-0.80822 -0.03779,0.14552 -0.162712,0.59199 -0.277502,0.99218 -0.31074,1.08328 -0.403336,2.96223 -0.208256,4.21628 0.09201,0.59148 0.204414,1.07326 0.250114,1.07126 0.30189,-0.0151 0.513413,-0.70458 0.598413,-1.95079 0.2086,-3.05968 1.238745,-5.35178 2.926953,-6.5133 0.31583,-0.21729 0.604738,-0.39532 0.642338,-0.39532 0.03755,0 -0.05001,0.34231 -0.194303,0.76068 -0.27755,0.80476 -0.361113,2.54614 -0.156063,3.25148 l 0.109037,0.37362 0.250114,-0.27647 c 0.14974,-0.16546 0.294935,-0.60762 0.361735,-1.10123 0.24379,-1.80137 0.959714,-3.23021 1.954403,-3.90053 0.25057,-0.16884 0.406717,-0.24738 0.473873,-0.23461 z"
                 sodipodi:nodetypes="sssssscssscsssscssssssssssssccsssssssssssssccccsssscsscsccccsccccssssscccssscssssccssscccsssss" />
            </g>
          </g>
          <path
             style="fill:#ffffff;stroke-width:0.151187"
             d="m 91.16209,-2.9833446 10.84384,-3.4826197 -0.31734,8.0980531 z"
             id="path13"
             sodipodi:nodetypes="cccc" />
          <g
             id="g16"
             transform="matrix(0.5744265,0.03297732,0.04263985,-0.5744265,40.511558,60.758323)">
            <g
               id="g15"
               transform="rotate(52.093248,100.23075,167.15671)">
              <path
                 id="path14"
                 style="fill:#000000;stroke-width:0.5"
                 d="m 56.873531,139.6969 c -0.574298,-0.0349 -2.454674,0.37721 -4.079337,0.91519 -1.906229,0.6312 -4.843105,2.06893 -6.507614,3.18585 -0.632229,0.42424 -1.659141,1.24812 -2.282031,1.8309 -0.622889,0.58279 -1.13223,0.99449 -1.13223,0.91519 0,-0.0793 -0.07437,-0.14391 -0.165365,-0.14366 -0.26818,7.4e-4 -2.202543,1.83905 -3.027722,2.87734 -0.60275,0.75825 -0.786133,0.91634 -0.876433,0.75499 -0.09489,-0.16955 -0.219916,-0.11143 -0.736905,0.34365 -1.047129,0.92171 -2.901117,3.20306 -3.595647,4.42402 -0.206939,0.3638 -0.396446,0.6873 -0.420646,0.7183 -0.02418,0.0311 -0.120457,-0.0487 -0.214457,-0.17725 -0.15602,-0.21337 -0.2233,-0.1726 -0.771529,0.47233 -0.689599,0.81123 -1.601345,2.12607 -1.842265,2.65668 -0.13398,0.29506 -0.200337,0.33353 -0.355017,0.20516 -0.15289,-0.12689 -0.239454,-0.0943 -0.443384,0.16639 -1.065179,1.36154 -2.411253,3.83316 -2.856673,5.2462 -0.23542,0.74682 -0.367642,0.86149 -0.502812,0.43563 -0.04618,-0.14552 -0.137788,-0.26459 -0.203088,-0.26459 -0.19839,0 -1.305114,1.79583 -2.133203,3.46078 -0.924409,1.8586 -1.598566,3.8057 -1.909444,5.51594 -0.222618,1.2247 -0.226876,1.23341 -0.401526,0.81804 -0.221217,-0.52612 -0.692122,-1.1958 -0.841293,-1.1958 -0.06201,0 -0.156663,0.40184 -0.210323,0.89297 -0.129733,1.18731 0.123718,3.39553 0.548287,4.77542 0.186902,0.60745 0.319022,1.12533 0.293522,1.15083 -0.0255,0.0255 -0.401917,-0.46344 -0.836124,-1.08675 -1.568505,-2.25157 -1.575557,-2.26023 -1.623157,-1.93632 -0.114786,0.78109 0.498509,3.20392 1.30328,5.14904 l 35.984868,-42.06289 c -0.02417,-0.0242 -0.0797,-0.0384 -0.161747,-0.0434 z m -4.141349,2.40089 c 0.06716,0.0128 0.04521,0.11667 -0.05994,0.31316 -0.17192,0.32116 -0.187985,1.51921 -0.02791,2.07739 0.14059,0.49021 0.327584,0.24884 -5.90765,7.62796 -4.056326,4.80046 -5.89539,7.02239 -13.718542,16.5747 -5.271991,4.50607 -7.017133,9.38662 -6.933944,7.56698 0.02301,-0.50331 -1.067083,-2.56325 -1.147734,-3.70469 -0.06025,-0.853 -0.01829,-1.30978 0.196888,-2.1425 0.263039,-1.0179 1.473759,-3.71079 1.546158,-3.43907 0.01936,0.0727 0.133485,0.93023 0.253215,1.90583 0.11973,0.9756 0.310363,2.27107 0.527616,2.84427 l 0.28961,0.7641 c 0.518747,0.84018 1.215942,0.38951 1.257395,-0.005 l -0.369834,-1.27609 c -0.585418,-2.01996 -0.496371,-4.79856 0.129708,-6.62802 0.36569,-1.06856 1.151643,-2.69855 1.301213,-2.69855 0.0571,0 0.10387,0.27131 0.10387,0.60255 0,0.76462 0.352856,2.33263 0.597896,2.65617 0.16691,0.22038 0.18837,0.13951 0.19637,-0.74517 0.01173,-1.32002 0.282838,-2.77608 0.727088,-3.90519 0.385779,-0.98053 1.117794,-2.36313 1.205094,-2.27583 0.02872,0.0287 -0.01527,0.69154 -0.09767,1.47278 -0.12499,1.18539 -0.113601,1.70884 0.06873,3.16363 0.12016,0.95879 0.300993,2.05554 0.402043,2.43757 0.363313,1.42095 1.373609,0.36314 1.372009,0.12196 l -0.155029,-0.5519 -0.100252,-0.46302 c -0.4382,-2.02553 -0.390363,-5.02021 0.104386,-6.54844 0.47179,-1.45733 2.078644,-4.11404 2.960543,-4.89479 l 0.29869,-0.26459 -0.07958,0.33073 c -0.2787,1.1537 -0.381844,2.50268 -0.318844,4.16719 0.06515,1.72237 0.384794,3.82741 0.619084,4.07675 0.0557,0.0593 0.283943,-0.12345 0.507463,-0.40566 0.371859,-0.46951 0.395382,-0.55707 0.279052,-1.03352 -0.06993,-0.28639 -0.162472,-1.29482 -0.205672,-2.24069 -0.09138,-2.00088 0.109622,-3.44814 0.680062,-4.89583 0.41645,-1.05687 1.559801,-2.85243 2.18953,-3.43855 l 0.426331,-0.39687 -0.07803,0.33072 c -0.29968,1.27125 -0.486792,2.90944 -0.486792,4.25814 0,1.50715 0.213792,3.41479 0.382922,3.41478 0.0439,0 0.249253,-0.2123 0.456303,-0.4718 0.375699,-0.47082 0.376368,-0.4758 0.362768,-2.34818 -0.02538,-3.50941 0.660287,-5.52123 2.527495,-7.41815 0.594869,-0.60435 1.025719,-0.9573 0.987019,-0.80822 -0.03779,0.14552 -0.162712,0.59199 -0.277502,0.99218 -0.31074,1.08328 -0.403336,2.96223 -0.208256,4.21628 0.09201,0.59148 0.204414,1.07326 0.250114,1.07126 0.30189,-0.0151 0.513413,-0.70458 0.598413,-1.95079 0.2086,-3.05968 1.238745,-5.35178 2.926953,-6.5133 0.31583,-0.21729 0.604738,-0.39532 0.642338,-0.39532 0.03755,0 -0.05001,0.34231 -0.194303,0.76068 -0.27755,0.80476 -0.361113,2.54614 -0.156063,3.25148 l 0.109037,0.37362 0.250114,-0.27647 c 0.14974,-0.16546 0.294935,-0.60762 0.361735,-1.10123 0.24379,-1.80137 0.959714,-3.23021 1.954403,-3.90053 0.25057,-0.16884 0.406717,-0.24738 0.473873,-0.23461 z"
                 sodipodi:nodetypes="sssssscssscsssscssssssssssssccsssssssssssccccsssscsscsccccsccccssssscccssscssssccssscccsssss" />
              <path
                 id="path15"
                 style="fill:#000000;stroke-width:0.5"
                 d="m 56.873531,139.6969 c -0.574298,-0.0349 -2.454674,0.37721 -4.079337,0.91519 -1.906229,0.6312 -4.843105,2.06893 -6.507614,3.18585 -0.632229,0.42424 -1.659141,1.24812 -2.282031,1.8309 -0.622889,0.58279 -1.13223,0.99449 -1.13223,0.91519 0,-0.0793 -0.07437,-0.14391 -0.165365,-0.14366 -0.26818,7.4e-4 -2.202543,1.83905 -3.027722,2.87734 -0.60275,0.75825 -0.786133,0.91634 -0.876433,0.75499 -0.09489,-0.16955 -0.219916,-0.11143 -0.736905,0.34365 -1.047129,0.92171 -2.901117,3.20306 -3.595647,4.42402 -0.206939,0.3638 -0.396446,0.6873 -0.420646,0.7183 -0.02418,0.0311 -0.120457,-0.0487 -0.214457,-0.17725 -0.15602,-0.21337 -0.2233,-0.1726 -0.771529,0.47233 -0.689599,0.81123 -1.601345,2.12607 -1.842265,2.65668 -0.13398,0.29506 -0.200337,0.33353 -0.355017,0.20516 -0.15289,-0.12689 -0.239454,-0.0943 -0.443384,0.16639 -1.065179,1.36154 -2.411253,3.83316 -2.856673,5.2462 -0.23542,0.74682 -0.367642,0.86149 -0.502812,0.43563 -0.04618,-0.14552 -0.137788,-0.26459 -0.203088,-0.26459 -0.19839,0 -1.305114,1.79583 -2.133203,3.46078 -0.924409,1.8586 -1.598566,3.8057 -1.909444,5.51594 -0.222618,1.2247 -0.226876,1.23341 -0.401526,0.81804 -0.221217,-0.52612 -0.692122,-1.1958 -0.841293,-1.1958 -0.06201,0 -0.156663,0.40184 -0.210323,0.89297 -0.129733,1.18731 0.123718,3.39553 0.548287,4.77542 0.186902,0.60745 0.319022,1.12533 0.293522,1.15083 -0.0255,0.0255 -0.401917,-0.46344 -0.836124,-1.08675 -1.568505,-2.25157 -1.575557,-2.26023 -1.623157,-1.93632 -0.114786,0.78109 0.498509,3.20392 1.30328,5.14904 l 35.984868,-42.06289 c -0.02417,-0.0242 -0.0797,-0.0384 -0.161747,-0.0434 z m -4.141349,2.40089 c 0.06716,0.0128 0.04521,0.11667 -0.05994,0.31316 -0.17192,0.32116 -0.187985,1.51921 -0.02791,2.07739 0.14059,0.49021 0.327584,0.24884 -5.90765,7.62796 -4.056326,4.80046 -5.578099,7.2981 -13.718542,16.5747 -1.091558,1.24391 -1.768175,2.23804 -2.638489,3.33365 -0.345482,0.43492 -0.811275,0.93547 -1.20895,1.3984 -2.160067,2.51452 -3.141566,4.03932 -3.086505,2.83493 0.02301,-0.50331 -1.067083,-2.56325 -1.147734,-3.70469 -0.06025,-0.853 -0.01829,-1.30978 0.196888,-2.1425 0.263039,-1.0179 1.473759,-3.71079 1.546158,-3.43907 0.01936,0.0727 0.133485,0.93023 0.253215,1.90583 0.11973,0.9756 0.310363,2.27107 0.527616,2.84427 l 0.28961,0.7641 c 0.518747,0.84018 1.215942,0.38951 1.257395,-0.005 l -0.369834,-1.27609 c -0.585418,-2.01996 -0.496371,-4.79856 0.129708,-6.62802 0.36569,-1.06856 1.151643,-2.69855 1.301213,-2.69855 0.0571,0 0.10387,0.27131 0.10387,0.60255 0,0.76462 0.352856,2.33263 0.597896,2.65617 0.16691,0.22038 0.18837,0.13951 0.19637,-0.74517 0.01173,-1.32002 0.282838,-2.77608 0.727088,-3.90519 0.385779,-0.98053 1.117794,-2.36313 1.205094,-2.27583 0.02872,0.0287 -0.01527,0.69154 -0.09767,1.47278 -0.12499,1.18539 -0.113601,1.70884 0.06873,3.16363 0.12016,0.95879 0.300993,2.05554 0.402043,2.43757 0.363313,1.42095 1.373609,0.36314 1.372009,0.12196 l -0.155029,-0.5519 -0.100252,-0.46302 c -0.4382,-2.02553 -0.390363,-5.02021 0.104386,-6.54844 0.47179,-1.45733 2.078644,-4.11404 2.960543,-4.89479 l 0.29869,-0.26459 -0.07958,0.33073 c -0.2787,1.1537 -0.381844,2.50268 -0.318844,4.16719 0.06515,1.72237 0.384794,3.82741 0.619084,4.07675 0.0557,0.0593 0.283943,-0.12345 0.507463,-0.40566 0.371859,-0.46951 0.395382,-0.55707 0.279052,-1.03352 -0.06993,-0.28639 -0.162472,-1.29482 -0.205672,-2.24069 -0.09138,-2.00088 0.109622,-3.44814 0.680062,-4.89583 0.41645,-1.05687 1.559801,-2.85243 2.18953,-3.43855 l 0.426331,-0.39687 -0.07803,0.33072 c -0.29968,1.27125 -0.486792,2.90944 -0.486792,4.25814 0,1.50715 0.213792,3.41479 0.382922,3.41478 0.0439,0 0.249253,-0.2123 0.456303,-0.4718 0.375699,-0.47082 0.376368,-0.4758 0.362768,-2.34818 -0.02538,-3.50941 0.660287,-5.52123 2.527495,-7.41815 0.594869,-0.60435 1.025719,-0.9573 0.987019,-0.80822 -0.03779,0.14552 -0.162712,0.59199 -0.277502,0.99218 -0.31074,1.08328 -0.403336,2.96223 -0.208256,4.21628 0.09201,0.59148 0.204414,1.07326 0.250114,1.07126 0.30189,-0.0151 0.513413,-0.70458 0.598413,-1.95079 0.2086,-3.05968 1.238745,-5.35178 2.926953,-6.5133 0.31583,-0.21729 0.604738,-0.39532 0.642338,-0.39532 0.03755,0 -0.05001,0.34231 -0.194303,0.76068 -0.27755,0.80476 -0.361113,2.54614 -0.156063,3.25148 l 0.109037,0.37362 0.250114,-0.27647 c 0.14974,-0.16546 0.294935,-0.60762 0.361735,-1.10123 0.24379,-1.80137 0.959714,-3.23021 1.954403,-3.90053 0.25057,-0.16884 0.406717,-0.24738 0.473873,-0.23461 z"
                 sodipodi:nodetypes="sssssscssscsssscssssssssssssccsssssssssssssccccsssscsscsccccsccccssssscccssscssssccssscccsssss" />
            </g>
          </g>
          <path
             style="fill:#ffffff;stroke-width:0.151187"
             d="m 90.603254,-2.9865454 0.0022,-0.1858766 11.400496,-3.2935423 -0.31734,8.0980531 -11.094717,-4.4638782 z"
             id="path16"
             sodipodi:nodetypes="cccccc" />
        </g>
      </g>
    </g>
    <text
       xml:space="preserve"
       style="font-size:29.6333px;font-family:'Protest Strike';-inkscape-font-specification:'Protest Strike';fill:#9e71fe;stroke-width:0.264583"
       x="60.294338"
       y="184.85309"
       id="text1"><tspan
         sodipodi:role="line"
         id="tspan1"
         style="font-size:29.6333px;fill:#000000;stroke-width:0.264583"
         x="60.294338"
         y="184.85309">draLLaM</tspan></text>
  </g>
</svg>
