<?xml version="1.0" encoding="UTF-8" standalone="no"?>
<!-- Created with Inkscape (http://www.inkscape.org/) -->

<svg
   width="205.71446mm"
   height="42.784115mm"
   viewBox="0 0 205.71446 42.784115"
   version="1.1"
   id="svg1"
   inkscape:version="1.3.2 (091e20e, 2023-11-25)"
   sodipodi:docname="draLLaM.svg"
   xmlns:inkscape="http://www.inkscape.org/namespaces/inkscape"
   xmlns:sodipodi="http://sodipodi.sourceforge.net/DTD/sodipodi-0.dtd"
   xmlns="http://www.w3.org/2000/svg"
   xmlns:svg="http://www.w3.org/2000/svg">
  <sodipodi:namedview
     id="namedview1"
     pagecolor="#ffffff"
     bordercolor="#000000"
     borderopacity="0.25"
     inkscape:showpageshadow="2"
     inkscape:pageopacity="0.0"
     inkscape:pagecheckerboard="0"
     inkscape:deskcolor="#d1d1d1"
     inkscape:document-units="mm"
     inkscape:zoom="5.6861479"
     inkscape:cx="108.06965"
     inkscape:cy="-2.8138558"
     inkscape:window-width="1920"
     inkscape:window-height="1027"
     inkscape:window-x="0"
     inkscape:window-y="325"
     inkscape:window-maximized="1"
     inkscape:current-layer="layer1" />
  <defs
     id="defs1" />
  <g
     inkscape:label="Layer 1"
     inkscape:groupmode="layer"
     id="layer1"
     transform="translate(-60.887001,-142.36531)">
    <path
       style="fill:#9e71fe;fill-opacity:1;stroke-width:0.227844"
       d="m 139.9374,148.72667 2.62514,-1.19323 18.37595,1.61087 -0.23865,1.13359 -17.77933,2.38648 -2.98311,-1.19325 -44.169538,-0.32504 0.04624,-2.23989 z"
       id="path22"
       sodipodi:nodetypes="ccccccccc" />
    <path
       style="fill:#000000;stroke-width:0.861145"
       d="m 163.68401,149.5768 c -0.0311,-0.11432 -1.14902,-0.63421 -2.48415,-1.15532 -1.33513,-0.5211 -4.79963,-1.90233 -7.69889,-3.06939 -4.41539,-1.77736 -5.31774,-2.06655 -5.55685,-1.78088 -0.157,0.18759 -0.5927,1.03636 -0.9682,1.88615 l -0.68274,1.54511 -2.45527,0.0212 c -2.32433,0.0201 -2.72889,0.13293 -3.73046,1.04105 -0.11724,0.10634 -4.92313,0.18112 -10.67971,0.16619 -5.75658,-0.0149 -13.21707,-0.0301 -16.57887,-0.0338 l -6.11235,-0.007 -3.83195,-0.14538 -3.296234,0.03 -3.296213,0.03 -0.875494,1.25577 -1.288331,0.44092 c 0.103234,0.10206 0.05744,0.27013 -0.101719,0.37349 l 1.592843,0.21224 3.683772,1.88577 23.967396,-0.13442 c 15.9988,-0.0855 16.57756,-0.0681 17.16733,0.51498 0.5524,0.54616 0.84879,0.59586 3.12205,0.52354 1.38144,-0.0439 2.629,0.0366 2.77235,0.17899 0.14335,0.1424 0.48169,0.90625 0.75187,1.69746 0.27017,0.79121 0.59889,1.43796 0.73048,1.43721 0.1316,-7.5e-4 3.64559,-1.4615 7.80887,-3.24612 4.16328,-1.78462 7.68822,-3.29313 7.8332,-3.35224 0.14495,-0.0592 0.23811,-0.20102 0.20693,-0.31536 z m -5.3297,0.26444 c -0.61078,-0.006 -1.03842,-0.084 -0.95032,-0.17307 0.0881,-0.0891 0.65993,-0.15705 1.2707,-0.15098 0.61079,0.006 1.03843,0.084 0.95032,0.17307 -0.0881,0.0891 -0.65992,0.15705 -1.2707,0.15098 z m -6.87812,0.63739 c -0.13712,0.13868 -0.52447,0.20234 -0.86079,0.14148 -0.33632,-0.0609 -1.30268,-0.13463 -2.14746,-0.16392 -1.49432,-0.0518 -2.32664,-0.41493 -1.91208,-0.83422 0.22132,-0.22385 4.07986,-0.25872 5.16383,-0.0467 0.94926,0.18571 1.30867,0.57876 0.56691,0.61997 -0.3086,0.0171 -0.67328,0.14466 -0.81039,0.28333 z m -6.72839,0.33792 c -0.16115,-0.92597 -0.0561,-2.22577 0.20094,-2.48571 0.0949,-0.096 0.18215,0.54491 0.19381,1.42432 0.0236,1.7764 -0.17665,2.31468 -0.39475,1.06139 z m -1.24062,-0.21969 c -0.11215,-0.89571 0.0194,-2.2557 0.21831,-2.25682 0.0777,-4.4e-4 0.14516,0.67584 0.14986,1.50287 0.009,1.58325 -0.20855,2.02873 -0.36817,0.75395 z m -1.17118,0.40196 c -0.1764,-0.57089 -0.0166,-2.60621 0.2223,-2.83041 0.15957,-0.15036 0.15873,3.06778 -0.001,3.22947 -0.041,0.0414 -0.14053,-0.13811 -0.22115,-0.39906 z m -1.35266,-0.56161 c -0.2057,-0.9821 -0.0356,-1.92029 0.34848,-1.92247 0.0818,-4.7e-4 0.16221,0.67575 0.1787,1.5027 0.0165,0.82696 -0.0442,1.50398 -0.1349,1.50449 -0.0907,5.2e-4 -0.2672,-0.48761 -0.39228,-1.08472 z m -16.94447,-0.0957 c -8.49121,0.0229 -15.43909,-0.0499 -15.43972,-0.16193 -6.3e-4,-0.11192 0.60108,-0.2179 1.33717,-0.23538 0.73609,-0.0175 1.66467,-0.14169 2.06351,-0.27602 0.65069,-0.21915 15.21958,-0.34626 23.86913,-0.20828 2.97293,0.0474 4.16962,0.27241 3.74317,0.70374 -0.0741,0.0749 -7.08204,0.15497 -15.57326,0.17787 z m -23.14424,-0.18489 c -2.192123,0.33836 -4.710852,0.21329 -4.713401,-0.23406 -0.0017,-0.26979 0.538724,-0.37088 2.096457,-0.39226 2.189194,-0.0301 4.349644,0.12482 4.176974,0.29946 -0.0552,0.0559 -0.75723,0.20294 -1.56003,0.32686 z"
       id="path2"
       sodipodi:nodetypes="csssscssssccccccccccsssssscccssssssssssssssssscsscssssssssssssssssssssss" />
    <g
       inkscape:label="Layer 1"
       id="layer1-8"
       transform="matrix(-1.4125172,-0.04605564,-0.05237004,1.6061787,198.28083,158.83488)">
      <g
         id="g23"
         transform="translate(0.02095945,-0.16204584)">
        <path
           id="path3"
           style="fill:#000000;stroke-width:0.287825"
           d="m 82.125829,-7.8983608 c 0.190523,4.265e-4 0.235754,0.028111 0.232154,0.1424291 -0.0036,0.1156549 0.03738,0.1321375 0.218782,0.088638 0.326205,-0.078234 1.245942,-0.129064 1.858285,-0.1027571 0.486814,0.020912 0.529184,0.037207 0.487454,0.1835318 -0.02518,0.088158 -0.02752,0.160102 -0.0048,0.1600854 0.02264,2.7e-5 0.236595,-0.028601 0.475019,-0.063274 0.800183,-0.1163611 2.491957,-0.080961 3.280926,0.06866 0.389531,0.073867 0.460299,0.1099748 0.416849,0.2130373 -0.04135,0.098078 0.09537,0.1254078 0.652935,0.1310078 0.763422,0.00758 2.282363,0.2361916 2.377542,0.3577355 0.03226,0.04124 0.02916,0.097878 -0.0069,0.1259235 -0.03602,0.028046 0.331089,0.1139038 0.816084,0.1907027 0.484989,0.076803 1.222563,0.2515597 1.638849,0.3886753 0.661656,0.2179352 1.540231,0.6051819 2.344237,1.0192334 l -1.096475,0.3166772 c -4.03e-4,-1.341e-4 -3.17e-4,-2.083e-4 -7.19e-4,-3.424e-4 -0.03337,-0.011097 -0.06813,-0.022274 -0.103755,-0.03354 -1.124609,-0.3560008 -2.530008,-0.013438 -3.993469,0.9739215 -0.596082,0.4021357 -0.984056,0.5500869 -1.097683,0.4183109 -0.01707,-0.020049 0.1619,-0.2414484 0.398006,-0.492425 0.500588,-0.5321189 1.386653,-1.1545964 1.98857,-1.3965796 0.22236,-0.089397 0.4696,-0.1906132 0.549059,-0.2249142 0.0814,-0.035147 -0.231281,-0.1059725 -0.716159,-0.1624204 -1.521936,-0.1771976 -2.678426,0.2228021 -4.263401,1.4754883 -0.845613,0.6683744 -0.847948,0.6699701 -1.194663,0.6658401 -0.19109,-0.00226 -0.360161,-0.020433 -0.375691,-0.040372 -0.05982,-0.076814 0.730935,-0.8487766 1.415472,-1.3818043 0.612571,-0.4769892 1.422873,-0.9712952 2.106252,-1.2847803 l 0.177894,-0.081446 -0.331311,-0.053256 c -0.488926,-0.078728 -1.70879,0.036981 -2.336097,0.2216112 -0.859277,0.2529084 -1.587566,0.6733721 -2.464035,1.4225195 -0.414329,0.3541431 -0.839559,0.7529423 -0.944903,0.8859904 -0.175259,0.2213402 -0.22346,0.2413711 -0.568223,0.2385211 -0.207229,-0.00171 -0.370918,-0.040731 -0.363718,-0.087002 0.03039,-0.1945961 0.873373,-1.0839959 1.632621,-1.7227301 0.733729,-0.6172947 1.382891,-1.0477336 2.00546,-1.3291743 l 0.178602,-0.080782 -0.225993,-0.042193 c -0.666508,-0.124428 -2.441599,0.085452 -3.270365,0.3865762 -0.869087,0.3157712 -2.245869,1.3530578 -3.010875,2.2684464 l -0.174951,0.2092591 -0.195697,0.2656114 c -0.108977,0.086024 -0.946946,0.00146 -0.430051,-0.6660973 0.137778,-0.1810073 0.572075,-0.6510044 0.965055,-1.0446716 0.596272,-0.5973233 0.829774,-0.7877813 1.412375,-1.1502437 0.383976,-0.2388724 0.700731,-0.4533883 0.703631,-0.4765833 0.0088,-0.070526 -0.877981,0.086116 -1.459768,0.257678 -0.669951,0.1975524 -1.427299,0.5892663 -2.030993,1.0507847 -0.4046,0.3092476 -0.448866,0.3283415 -0.407806,0.1745913 0.06029,-0.2257207 0.64772,-0.940695 0.995006,-1.2111151 0.150449,-0.1171483 0.257029,-0.2343152 0.236839,-0.2602491 -0.0529,-0.067934 -1.071096,0.1516642 -1.68576,0.3634835 -1.052352,0.3626568 -2.346084,1.3048714 -3.056494,2.2851555 l -0.448808,0.6193407 c -0.0054,0.00338 -0.01274,0.00425 -0.01856,0.00719 l -0.294369,-0.013589 C 74.972837,-3.7998148 74.8688,-3.9788849 74.983416,-4.2870606 l 0.244653,-0.4019103 c 0.183509,-0.3013962 0.70454,-0.8461783 1.105307,-1.2455954 0.400766,-0.3994171 0.749769,-0.7543403 0.775939,-0.7888452 0.09781,-0.1289813 -1.553414,0.2733046 -2.108765,0.5138306 -0.454318,0.1967723 -0.67682,0.3395398 -1.042939,0.668582 -0.424414,0.3814522 -0.893067,1.3484568 -1.164954,1.7097577 L 68.38187,-4.0346111 c 0.598841,-1.0534444 1.482368,-2.189114 1.87773,-2.4132239 0.163952,-0.092936 0.162753,-0.08638 -0.305168,1.4223281 -0.129536,0.4176575 -0.218676,0.7613511 -0.198076,0.7639111 0.0206,0.00256 0.209376,-0.2406759 0.419175,-0.5404 0.476581,-0.6808565 1.389828,-1.576819 1.974978,-1.9378063 0.242046,-0.1493237 0.457808,-0.2483105 0.479738,-0.2201455 0.05276,0.067752 -0.08461,0.5184792 -0.24533,0.8050252 -0.126891,0.2262271 -0.121385,0.2248123 0.513599,-0.1072107 0.886727,-0.4636549 2.009499,-0.8459919 3.180595,-1.0834549 1.049077,-0.2127232 2.255835,-0.3451465 2.325995,-0.2550396 0.02309,0.029659 0.0015,0.113427 -0.04823,0.1858669 -0.145618,0.212006 -0.04656,0.231359 0.375902,0.07416 0.799323,-0.2974372 2.397931,-0.5600305 3.393051,-0.5577601 z m -9.33317,4.0671195 2.324638,0.1071954 c 0.09944,-0.096356 0.175377,-0.097923 0.294369,0.013589 l 15.191767,0.7007192 -1.28e-4,0.023161 -0.0066,0.1079149 c -3.369031,-0.1182361 -5.179314,0.044409 -12.026742,-0.3577247 -0.951023,-0.05585 -1.641743,-0.011525 -2.447162,-0.019336 -0.319722,-0.0031 -0.711685,-0.0377 -1.062588,-0.054599 -1.906022,-0.091788 -2.945795,0.00165 -2.379295,-0.3992896 0.03165,-0.022401 0.06974,-0.065873 0.111702,-0.1216303 z"
           sodipodi:nodetypes="cccsccccsccccscccccccccccccsccccsccccccccccccccccccsccccccccscscccssssscsssscccccccccsssscc" />
        <path
           id="path23"
           style="fill:#000000;stroke-width:0.287825"
           d="m 81.774348,1.5826667 c 0.19015,0.010489 0.237335,-0.014545 0.242211,-0.1288271 0.005,-0.1156155 0.04709,-0.1297153 0.224883,-0.075916 0.319717,0.096756 1.233735,0.2001664 1.846726,0.2089948 0.487329,0.00702 0.530816,-0.00681 0.500014,-0.1552171 -0.0186,-0.089414 -0.0156,-0.1613383 0.007,-0.1600225 0.02259,0.00127 0.233974,0.042094 0.469323,0.090352 0.789864,0.1619542 2.480667,0.2235466 3.279043,0.1194405 0.394175,-0.051395 0.467468,-0.083372 0.431744,-0.1887047 -0.03399,-0.1002383 0.104458,-0.1196779 0.661252,-0.093325 0.762363,0.036167 2.295011,-0.1049398 2.398991,-0.22077302 0.03525,-0.039305 0.03635,-0.095999 0.0025,-0.1260492 -0.03386,-0.03005 0.338823,-0.094695 0.828477,-0.1435465 0.489647,-0.048856 1.2386,-0.1809882 1.664158,-0.2939647 0.676394,-0.1795679 1.581787,-0.515661 2.414755,-0.8827738 l -1.070689,-0.3788186 c -4.12e-4,1.107e-4 -3.32e-4,1.897e-4 -7.43e-4,3.005e-4 -0.03412,0.00916 -0.06964,0.018323 -0.106019,0.027525 -1.14859,0.29081896 -2.52563,-0.1315273 -3.912846,-1.20062748 -0.565029,-0.4354295 -0.941219,-0.6052924 -1.064366,-0.4803056 -0.01852,0.019029 0.143671,0.2502104 0.360685,0.5141797 0.46011,0.559666 1.298184,1.23158158 1.880898,1.50753284 0.215266,0.1019452 0.454484,0.2171105 0.531233,0.2558906 0.07862,0.039736 -0.238639,0.092498 -0.726669,0.1210487 -1.531828,0.089634 -2.656233,-0.3757684 -4.145052,-1.71659264 -0.794309,-0.7153976 -0.79652,-0.7171237 -1.142805,-0.7328648 -0.190852,-0.00869 -0.36091,-2.428e-4 -0.377884,0.018764 -0.06538,0.073224 0.666512,0.888847 1.310112,1.4599578 0.575938,0.51106854 1.347905,1.05074455 2.006612,1.40271264 l 0.171483,0.091464 -0.334552,0.034163 c -0.493719,0.050552 -1.702422,-0.1347943 -2.31472,-0.3549689 -0.838719,-0.3015968 -1.534316,-0.76288906 -2.353432,-1.56065574 -0.387217,-0.3771266 -0.782003,-0.799439 -0.877268,-0.9382394 -0.158492,-0.2309102 -0.205107,-0.2536598 -0.549349,-0.2705664 -0.206915,-0.010162 -0.373147,0.019396 -0.36939,0.065981 0.01591,0.1959237 0.791224,1.1317267 1.501547,1.81259938 0.686446,0.65801686 1.302345,1.12473016 1.902745,1.44123826 l 0.172239,0.090842 -0.228639,0.029157 c -0.674309,0.085981 -2.430083,-0.225143 -3.234784,-0.5731051 -0.843851,-0.3648881 -2.140874,-1.47884344 -2.83645,-2.43611284 l -0.159079,-0.218837 -0.175607,-0.2762582 c -0.102373,-0.092084 -0.944827,-0.055703 -0.478477,0.6400461 0.124078,0.1885158 0.522638,0.6823943 0.885624,1.09773798 0.55076,0.63021336 0.769658,0.83364346 1.324173,1.22871166 0.365467,0.2603619 0.665659,0.4925682 0.666835,0.5158801 0.0035,0.070879 -0.869737,-0.1362305 -1.437581,-0.3407568 -0.653895,-0.2355124 -1.380619,-0.6697806 -1.948845,-1.16490266 -0.380833,-0.33176918 -0.423591,-0.35335838 -0.394007,-0.1975825 0.04344,0.228695 0.576665,0.97580296 0.903182,1.26554376 0.141452,0.1255183 0.239127,0.248542 0.217059,0.2732642 -0.05782,0.064759 -1.057587,-0.2127022 -1.655255,-0.4592839 C 77.66209,-0.29577686 76.440898,-1.3101044 75.804609,-2.3290038 L 75.40263,-2.97274 c -0.0052,-0.00369 -0.0124,-0.00497 -0.01799,-0.00824 l -0.29475,-0.0033 c -0.149764,0.067332 -0.266844,0.2400623 -0.175299,0.5541494 l 0.214363,0.4150722 c 0.160794,0.3112687 0.640365,0.8847421 1.010695,1.30626968 0.370329,0.42152746 0.692301,0.79569026 0.715859,0.83162106 0.08805,0.1343105 -1.52987,-0.3617148 -2.066225,-0.6335445 -0.438778,-0.22238086 -0.650232,-0.37759166 -0.9912,-0.72690894 -0.395258,-0.4049555 -0.791287,-1.396754 -1.035834,-1.7728631 l -4.416483,-0.049744 c 0.519538,1.0855129 1.317066,2.26938508 1.694988,2.51566814 0.15672,0.1021313 0.156009,0.09552 -0.199164,-1.43678924 -0.09832,-0.4241912 -0.161816,-0.7722614 -0.14107,-0.7736358 0.02075,-0.00138 0.191103,0.2521592 0.378255,0.5632655 0.425136,0.7067124 1.270077,1.65308924 1.827245,2.04683134 0.230471,0.1628727 0.438443,0.2740097 0.462413,0.2471608 0.05766,-0.064586 -0.04602,-0.5222249 -0.185179,-0.81736956 -0.109864,-0.2330159 -0.104475,-0.2312886 0.504567,0.13640556 0.850499,0.5134682 1.942566,0.9593136 3.093585,1.263361 1.031092,0.27237014 2.225478,0.47364396 2.302163,0.38774766 0.02524,-0.028273 0.0099,-0.11309852 -0.03436,-0.18823526 -0.129605,-0.2198977 -0.02932,-0.2335348 0.380597,-0.052469 0.775593,0.34259646 2.351355,0.69621186 3.34453,0.75095426 z m -9.012085,-4.5931521 2.327641,0.026204 c 0.104177,0.1249539 0.179001,0.05961 0.29475,0.0033 l 15.211405,0.1710627 0.0016,-0.023119 0.0014,-0.1080616 c -3.370633,-0.075017 -5.165024,-0.3410228 -12.027695,-0.3320133 -0.95314,0.00125 -1.63911,-0.08255 -2.443397,-0.1208962 -0.319272,-0.015223 -0.712966,-0.00315 -1.064375,-0.00639 -1.908773,-0.017598 -2.939416,-0.1704054 -2.403818,0.2621384 0.02992,0.024166 0.06471,0.069728 0.102455,0.1277711 z"
           sodipodi:nodetypes="sccscccccccccsccccccsccccccsccccscscccccsccccccccccsccccccccscscccsscsssssssccssccccccsssscc" />
      </g>
    </g>
    <path
       style="font-size:29.6333px;font-family:'Protest Strike';-inkscape-font-specification:'Protest Strike';stroke-width:0.264583"
       d="m 66.339532,185.14942 q -1.629832,0 -2.696631,-0.68156 -1.037165,-0.7112 -1.659465,-1.92617 -0.592666,-1.21496 -0.859365,-2.72626 -0.237067,-1.54093 -0.237067,-3.23003 0,-4.85986 1.511299,-6.93419 1.540931,-2.07434 4.415361,-2.07434 1.303866,0 2.904064,0.5334 v -4.83022 l 5.333994,-0.8001 v 22.37314 h -4.533895 l -0.4445,-1.30387 q -0.651932,0.74084 -1.629831,1.18534 -0.977899,0.41486 -2.103964,0.41486 z m 1.748364,-4.14866 q 0.325967,0 0.740833,-0.11853 0.414866,-0.11854 0.888999,-0.38524 v -8.59365 q -0.651933,-0.1778 -1.214965,-0.1778 -1.363132,0 -1.748365,1.24459 -0.3556,1.2446 -0.3556,3.76343 0,2.34103 0.3556,3.31893 0.355599,0.94827 1.333498,0.94827 z m 9.334494,3.85233 v -17.03915 h 4.533895 l 0.592666,2.37066 h 0.05927 q 0.474133,-1.48166 1.659465,-2.16323 1.214966,-0.68156 3.05223,-0.3556 v 5.03767 q -1.155699,0 -2.400297,0.14816 -1.214966,0.14817 -2.163231,0.41487 v 11.58662 z m 14.609193,0.29633 q -1.185332,0 -2.222497,-0.59266 -1.037166,-0.6223 -1.689098,-1.778 -0.651933,-1.1557 -0.651933,-2.78553 0,-2.54847 1.777998,-3.85233 1.807632,-1.30387 4.652428,-1.30387 h 1.274232 v -1.62983 q 0,-0.85936 -0.592666,-1.1557 -0.592666,-0.32596 -1.511298,-0.32596 -1.126065,0 -2.163231,0.20743 -1.037166,0.20743 -2.074331,0.59267 v -4.14867 q 1.333498,-0.29633 2.755897,-0.5334 1.452032,-0.2667 2.904063,-0.2667 1.629832,0 2.992964,0.41487 1.363132,0.38523 2.192864,1.4224 0.829735,1.03716 0.829735,2.96333 v 12.47562 h -4.622797 l -0.3556,-1.27423 q -0.740833,0.8001 -1.659465,1.18533 -0.918632,0.38523 -1.837265,0.38523 z m 2.074331,-3.91159 q 0.592667,0 1.066799,-0.5334 v -2.9337 H 94.78748 q -0.888999,0 -1.511298,0.4445 -0.622299,0.41487 -0.622299,1.27423 0,0.82973 0.444499,1.30387 0.4445,0.4445 1.007532,0.4445 z m 8.623336,-17.72072 h 5.7785 v 16.29832 h 6.54896 l -0.91863,5.03766 h -11.40883 z m 13.80911,0 h 5.7785 v 16.29832 h 6.54896 l -0.91864,5.03766 h -11.40882 z m 17.63181,21.63231 q -1.18533,0 -2.2225,-0.59266 -1.03717,-0.6223 -1.6891,-1.778 -0.65193,-1.1557 -0.65193,-2.78553 0,-2.54847 1.778,-3.85233 1.80763,-1.30387 4.65243,-1.30387 h 1.27423 v -1.62983 q 0,-0.85936 -0.59267,-1.1557 -0.59266,-0.32596 -1.5113,-0.32596 -1.12606,0 -2.16323,0.20743 -1.03716,0.20743 -2.07433,0.59267 v -4.14867 q 1.3335,-0.29633 2.7559,-0.5334 1.45203,-0.2667 2.90406,-0.2667 1.62983,0 2.99296,0.41487 1.36314,0.38523 2.19287,1.4224 0.82973,1.03716 0.82973,2.96333 v 12.47562 h -4.62279 l -0.3556,-1.27423 q -0.74084,0.8001 -1.65947,1.18533 -0.91863,0.38523 -1.83726,0.38523 z m 2.07433,-3.91159 q 0.59266,0 1.0668,-0.5334 v -2.9337 h -0.38524 q -0.88899,0 -1.51129,0.4445 -0.6223,0.41487 -0.6223,1.27423 0,0.82973 0.4445,1.30387 0.4445,0.4445 1.00753,0.4445 z m 16.56505,-0.77047 -2.60773,-6.22299 v 10.60872 h -5.63033 v -17.27622 l -1.62983,-4.05976 h 7.05273 l 4.14866,8.91963 4.14866,-8.91963 h 5.45253 v 21.33598 h -5.63033 v -10.54946 l -2.60773,6.16373 z"
       id="text1"
       aria-label="draLLaM" />
  </g>
</svg>
